<svg xmlns="http://www.w3.org/2000/svg" width="64" height="64" viewBox="0 0 64 64">
  <g fill="#ffffff">
    <path d="M55.2 36.5v-9l-6.2-1.4c-.4-1.4-.9-2.8-1.5-4.1l3.8-5.1-6.4-6.4-5.1 3.8c-1.3-.6-2.7-1.1-4.1-1.5L36.5 8h-9l-1.4 6.2c-1.4.4-2.8.9-4.1 1.5l-5.1-3.8-6.4 6.4 3.8 5.1c-.6 1.3-1.1 2.7-1.5 4.1L8 27.5v9l6.2 1.4c.4 1.4.9 2.8 1.5 4.1l-3.8 5.1 6.4 6.4 5.1-3.8c1.3.6 2.7 1.1 4.1 1.5L27.5 56h9l1.4-6.2c1.4-.4 2.8-.9 4.1-1.5l5.1 3.8 6.4-6.4-3.8-5.1c.6-1.3 1.1-2.7 1.5-4.1l6.2-1.4zM32 42c-5.5 0-10-4.5-10-10s4.5-10 10-10 10 4.5 10 10-4.5 10-10 10z"></path>
  </g>
</svg>
